{
	"asset":{
		"generator":"Khronos glTF Blender I/O v4.5.48",
		"version":"2.0"
	},
	"extensionsUsed":[
		"KHR_materials_specular"
	],
	"scene":0,
	"scenes":[
		{
			"name":"Scene",
			"nodes":[
				1
			]
		}
	],
	"nodes":[
		{
			"mesh":0,
			"name":"Sphere.001"
		},
		{
			"children":[
				0
			],
			"name":"Empty",
			"translation":[
				-64,
				64,
				64
			]
		}
	],
	"materials":[
		{
			"doubleSided":true,
			"extensions":{
				"KHR_materials_specular":{
					"specularFactor":0,
					"specularColorFactor":[
						0.0,
						0.0,
						0.0
					]
				}
			},
			"name":"Material.001",
			"pbrMetallicRoughness":{
				"baseColorFactor":[
					0,
					0,
					0,
					1
				],
				"metallicFactor":0
			}
		}
	],
	"meshes":[
		{
			"name":"Sphere.001",
			"primitives":[
				{
					"attributes":{
						"POSITION":0,
						"NORMAL":1,
						"TEXCOORD_0":2
					},
					"indices":3,
					"material":0
				}
			]
		}
	],
	"accessors":[
		{
			"bufferView":0,
			"componentType":5126,
			"count":7936,
			"max":[
				63.749778747558594,
				63.750205993652344,
				63.75022888183594
			],
			"min":[
				-63.75022888183594,
				-63.74979019165039,
				-63.74977111816406
			],
			"type":"VEC3"
		},
		{
			"bufferView":1,
			"componentType":5126,
			"count":7936,
			"type":"VEC3"
		},
		{
			"bufferView":2,
			"componentType":5126,
			"count":7936,
			"type":"VEC2"
		},
		{
			"bufferView":3,
			"componentType":5123,
			"count":11904,
			"type":"SCALAR"
		}
	],
	"bufferViews":[
		{
			"buffer":0,
			"byteLength":95232,
			"byteOffset":0,
			"target":34962
		},
		{
			"buffer":0,
			"byteLength":95232,
			"byteOffset":95232,
			"target":34962
		},
		{
			"buffer":0,
			"byteLength":63488,
			"byteOffset":190464,
			"target":34962
		},
		{
			"buffer":0,
			"byteLength":23808,
			"byteOffset":253952,
			"target":34963
		}
	],
	"buffers":[
		{
			"byteLength":277760,
			"uri":"Background.bin"
		}
	]
}
