{
	"asset":{
		"generator":"Khronos glTF Blender I/O v4.5.48",
		"version":"2.0"
	},
	"scene":0,
	"scenes":[
		{
			"name":"Scene",
			"nodes":[
				0,
				1
			]
		}
	],
	"nodes":[
		{
			"mesh":0,
			"name":"Plane.001"
		},
		{
			"mesh":1,
			"name":"Cylinder",
			"rotation":[
				0,
				0,
				0.7071068286895752,
				0.7071068286895752
			],
			"scale":[
				0.12458872050046921,
				1.2741811275482178,
				0.12458872050046921
			]
		}
	],
	"materials":[
		{
			"doubleSided":true,
			"name":"Ship",
			"pbrMetallicRoughness":{
				"baseColorFactor":[
					0.14159438014030457,
					0.12022318691015244,
					0.16504591703414917,
					1
				],
				"metallicFactor":0.539130449295044,
				"roughnessFactor":0.7347825765609741
			}
		},
		{
			"doubleSided":true,
			"name":"Material.009",
			"pbrMetallicRoughness":{
				"baseColorFactor":[
					0.002450578846037388,
					0.04245142266154289,
					0.005870353430509567,
					1
				],
				"metallicFactor":0,
				"roughnessFactor":0.8523316383361816
			}
		}
	],
	"meshes":[
		{
			"name":"Plane.001",
			"primitives":[
				{
					"attributes":{
						"POSITION":0,
						"NORMAL":1,
						"TEXCOORD_0":2
					},
					"indices":3,
					"material":0
				}
			]
		},
		{
			"name":"Cylinder",
			"primitives":[
				{
					"attributes":{
						"POSITION":4,
						"NORMAL":5,
						"TEXCOORD_0":6
					},
					"indices":7,
					"material":1
				}
			]
		}
	],
	"accessors":[
		{
			"bufferView":0,
			"componentType":5126,
			"count":372,
			"max":[
				2.3028905391693115,
				0.4981345534324646,
				1.1533160209655762
			],
			"min":[
				-1.9364309310913086,
				-0.09996090829372406,
				-0.9978578090667725
			],
			"type":"VEC3"
		},
		{
			"bufferView":1,
			"componentType":5126,
			"count":372,
			"type":"VEC3"
		},
		{
			"bufferView":2,
			"componentType":5126,
			"count":372,
			"type":"VEC2"
		},
		{
			"bufferView":3,
			"componentType":5123,
			"count":1056,
			"type":"SCALAR"
		},
		{
			"bufferView":4,
			"componentType":5126,
			"count":132,
			"max":[
				1,
				1,
				3.0045664310455322
			],
			"min":[
				-1,
				-1,
				-2.7000672817230225
			],
			"type":"VEC3"
		},
		{
			"bufferView":5,
			"componentType":5126,
			"count":132,
			"type":"VEC3"
		},
		{
			"bufferView":6,
			"componentType":5126,
			"count":132,
			"type":"VEC2"
		},
		{
			"bufferView":7,
			"componentType":5123,
			"count":360,
			"type":"SCALAR"
		}
	],
	"bufferViews":[
		{
			"buffer":0,
			"byteLength":4464,
			"byteOffset":0,
			"target":34962
		},
		{
			"buffer":0,
			"byteLength":4464,
			"byteOffset":4464,
			"target":34962
		},
		{
			"buffer":0,
			"byteLength":2976,
			"byteOffset":8928,
			"target":34962
		},
		{
			"buffer":0,
			"byteLength":2112,
			"byteOffset":11904,
			"target":34963
		},
		{
			"buffer":0,
			"byteLength":1584,
			"byteOffset":14016,
			"target":34962
		},
		{
			"buffer":0,
			"byteLength":1584,
			"byteOffset":15600,
			"target":34962
		},
		{
			"buffer":0,
			"byteLength":1056,
			"byteOffset":17184,
			"target":34962
		},
		{
			"buffer":0,
			"byteLength":720,
			"byteOffset":18240,
			"target":34963
		}
	],
	"buffers":[
		{
			"byteLength":18960,
			"uri":"Breach.bin"
		}
	]
}
