{
	"asset":{
		"generator":"Khronos glTF Blender I/O v4.5.48",
		"version":"2.0"
	},
	"extensionsUsed":[
		"KHR_materials_emissive_strength"
	],
	"scene":0,
	"scenes":[
		{
			"name":"Scene",
			"nodes":[
				1
			]
		}
	],
	"nodes":[
		{
			"mesh":0,
			"name":"Torus",
			"rotation":[
				0.7071068286895752,
				0,
				0,
				0.7071068286895752
			],
			"scale":[
				0.48260071873664856,
				0.8299550414085388,
				0.48260071873664856
			],
			"translation":[
				0,
				0.8404984474182129,
				-3.182649612426758
			]
		},
		{
			"children":[
				0
			],
			"name":"Empty.004",
			"rotation":[
				-0.06540738791227341,
				0,
				0,
				0.9978586435317993
			]
		}
	],
	"materials":[
		{
			"doubleSided":true,
			"name":"Metal",
			"pbrMetallicRoughness":{
				"baseColorFactor":[
					0.14126233756542206,
					0.1195385530591011,
					0.16513225436210632,
					1
				],
				"metallicFactor":0.7501852512359619,
				"roughnessFactor":0.609154462814331
			}
		},
		{
			"doubleSided":true,
			"emissiveFactor":[
				0.38165944802469626,
				0,
				1
			],
			"extensions":{
				"KHR_materials_emissive_strength":{
					"emissiveStrength":1.198654443025589
				}
			},
			"name":"WeaponGlow",
			"pbrMetallicRoughness":{
				"baseColorFactor":[
					0.3049851953983307,
					0,
					0.7991029620170593,
					1
				],
				"metallicFactor":0,
				"roughnessFactor":0.5
			}
		}
	],
	"meshes":[
		{
			"name":"Torus",
			"primitives":[
				{
					"attributes":{
						"POSITION":0,
						"NORMAL":1,
						"TEXCOORD_0":2
					},
					"indices":3,
					"material":0
				},
				{
					"attributes":{
						"POSITION":4,
						"NORMAL":5,
						"TEXCOORD_0":6
					},
					"indices":7,
					"material":1
				}
			]
		}
	],
	"accessors":[
		{
			"bufferView":0,
			"componentType":5126,
			"count":2462,
			"max":[
				2.507181167602539,
				5.209314823150635,
				1.2108694314956665
			],
			"min":[
				-2.507181167602539,
				-2.015791416168213,
				-3.803492784500122
			],
			"type":"VEC3"
		},
		{
			"bufferView":1,
			"componentType":5126,
			"count":2462,
			"type":"VEC3"
		},
		{
			"bufferView":2,
			"componentType":5126,
			"count":2462,
			"type":"VEC2"
		},
		{
			"bufferView":3,
			"componentType":5123,
			"count":12084,
			"type":"SCALAR"
		},
		{
			"bufferView":4,
			"componentType":5126,
			"count":441,
			"max":[
				2.3436696529388428,
				2.5404748916625977,
				1.0473579168319702
			],
			"min":[
				-2.3436696529388428,
				-0.05437900125980377,
				-3.639981269836426
			],
			"type":"VEC3"
		},
		{
			"bufferView":5,
			"componentType":5126,
			"count":441,
			"type":"VEC3"
		},
		{
			"bufferView":6,
			"componentType":5126,
			"count":441,
			"type":"VEC2"
		},
		{
			"bufferView":7,
			"componentType":5123,
			"count":1728,
			"type":"SCALAR"
		}
	],
	"bufferViews":[
		{
			"buffer":0,
			"byteLength":29544,
			"byteOffset":0,
			"target":34962
		},
		{
			"buffer":0,
			"byteLength":29544,
			"byteOffset":29544,
			"target":34962
		},
		{
			"buffer":0,
			"byteLength":19696,
			"byteOffset":59088,
			"target":34962
		},
		{
			"buffer":0,
			"byteLength":24168,
			"byteOffset":78784,
			"target":34963
		},
		{
			"buffer":0,
			"byteLength":5292,
			"byteOffset":102952,
			"target":34962
		},
		{
			"buffer":0,
			"byteLength":5292,
			"byteOffset":108244,
			"target":34962
		},
		{
			"buffer":0,
			"byteLength":3528,
			"byteOffset":113536,
			"target":34962
		},
		{
			"buffer":0,
			"byteLength":3456,
			"byteOffset":117064,
			"target":34963
		}
	],
	"buffers":[
		{
			"byteLength":120520,
			"uri":"EnergyWeapon3.bin"
		}
	]
}
