{
	"asset":{
		"generator":"Khronos glTF Blender I/O v4.5.48",
		"version":"2.0"
	},
	"scene":0,
	"scenes":[
		{
			"name":"Scene",
			"nodes":[
				3
			]
		}
	],
	"nodes":[
		{
			"mesh":0,
			"name":"Cube.001",
			"translation":[
				0,
				-1.5956740379333496,
				0.47647473216056824
			]
		},
		{
			"mesh":1,
			"name":"Cube.002",
			"rotation":[
				0.3799920976161957,
				-0.21938852965831757,
				-0.4492979645729065,
				0.7782069444656372
			],
			"translation":[
				0,
				0.059996604919433594,
				-1.5369559526443481
			]
		},
		{
			"mesh":2,
			"name":"Cube.003",
			"rotation":[
				0.37999218702316284,
				0.21938857436180115,
				0.44929802417755127,
				0.7782068848609924
			],
			"translation":[
				0,
				0.059996604919433594,
				-1.5369559526443481
			]
		},
		{
			"children":[
				0,
				1,
				2
			],
			"name":"Empty.001",
			"rotation":[
				-0.13052619993686676,
				0,
				0,
				0.9914448857307434
			],
			"translation":[
				0,
				1.59567391872406,
				-0.47647473216056824
			]
		}
	],
	"materials":[
		{
			"doubleSided":true,
			"name":"Ship",
			"pbrMetallicRoughness":{
				"baseColorFactor":[
					0.14159438014030457,
					0.12022318691015244,
					0.16504591703414917,
					1
				],
				"metallicFactor":0.539130449295044,
				"roughnessFactor":0.7347825765609741
			}
		}
	],
	"meshes":[
		{
			"name":"Cube.003",
			"primitives":[
				{
					"attributes":{
						"POSITION":0,
						"NORMAL":1,
						"TEXCOORD_0":2
					},
					"indices":3,
					"material":0
				}
			]
		},
		{
			"name":"Cube.004",
			"primitives":[
				{
					"attributes":{
						"POSITION":4,
						"NORMAL":5,
						"TEXCOORD_0":6
					},
					"indices":7,
					"material":0
				}
			]
		},
		{
			"name":"Cube.007",
			"primitives":[
				{
					"attributes":{
						"POSITION":8,
						"NORMAL":9,
						"TEXCOORD_0":10
					},
					"indices":7,
					"material":0
				}
			]
		}
	],
	"accessors":[
		{
			"bufferView":0,
			"componentType":5126,
			"count":615,
			"max":[
				0.9999999403953552,
				2.5956740379333496,
				-0.47647473216056824
			],
			"min":[
				-0.9999999403953552,
				0.5956740379333496,
				-2.092491626739502
			],
			"type":"VEC3"
		},
		{
			"bufferView":1,
			"componentType":5126,
			"count":615,
			"type":"VEC3"
		},
		{
			"bufferView":2,
			"componentType":5126,
			"count":615,
			"type":"VEC2"
		},
		{
			"bufferView":3,
			"componentType":5123,
			"count":2958,
			"type":"SCALAR"
		},
		{
			"bufferView":4,
			"componentType":5126,
			"count":66,
			"max":[
				0.06231372430920601,
				1.4785327911376953,
				0.062313616275787354
			],
			"min":[
				-0.0623137503862381,
				2.384185791015625e-07,
				-0.06231389194726944
			],
			"type":"VEC3"
		},
		{
			"bufferView":5,
			"componentType":5126,
			"count":66,
			"type":"VEC3"
		},
		{
			"bufferView":6,
			"componentType":5126,
			"count":66,
			"type":"VEC2"
		},
		{
			"bufferView":7,
			"componentType":5123,
			"count":180,
			"type":"SCALAR"
		},
		{
			"bufferView":8,
			"componentType":5126,
			"count":66,
			"max":[
				0.062313731759786606,
				1.4642255306243896,
				0.062313638627529144
			],
			"min":[
				-0.0623137466609478,
				2.384185791015625e-07,
				-0.062313854694366455
			],
			"type":"VEC3"
		},
		{
			"bufferView":9,
			"componentType":5126,
			"count":66,
			"type":"VEC3"
		},
		{
			"bufferView":10,
			"componentType":5126,
			"count":66,
			"type":"VEC2"
		}
	],
	"bufferViews":[
		{
			"buffer":0,
			"byteLength":7380,
			"byteOffset":0,
			"target":34962
		},
		{
			"buffer":0,
			"byteLength":7380,
			"byteOffset":7380,
			"target":34962
		},
		{
			"buffer":0,
			"byteLength":4920,
			"byteOffset":14760,
			"target":34962
		},
		{
			"buffer":0,
			"byteLength":5916,
			"byteOffset":19680,
			"target":34963
		},
		{
			"buffer":0,
			"byteLength":792,
			"byteOffset":25596,
			"target":34962
		},
		{
			"buffer":0,
			"byteLength":792,
			"byteOffset":26388,
			"target":34962
		},
		{
			"buffer":0,
			"byteLength":528,
			"byteOffset":27180,
			"target":34962
		},
		{
			"buffer":0,
			"byteLength":360,
			"byteOffset":27708,
			"target":34963
		},
		{
			"buffer":0,
			"byteLength":792,
			"byteOffset":28068,
			"target":34962
		},
		{
			"buffer":0,
			"byteLength":792,
			"byteOffset":28860,
			"target":34962
		},
		{
			"buffer":0,
			"byteLength":528,
			"byteOffset":29652,
			"target":34962
		}
	],
	"buffers":[
		{
			"byteLength":30180,
			"uri":"EnergyWeapon.bin"
		}
	]
}
