{
	"asset":{
		"generator":"Khronos glTF Blender I/O v4.5.48",
		"version":"2.0"
	},
	"extensionsUsed":[
		"KHR_materials_emissive_strength"
	],
	"scene":0,
	"scenes":[
		{
			"name":"Scene",
			"nodes":[
				0
			]
		}
	],
	"nodes":[
		{
			"mesh":0,
			"name":"Text.001",
			"rotation":[
				-1,
				0,
				0,
				4.371138828673793e-08
			],
			"scale":[
				0.257799357175827,
				1,
				1
			],
			"translation":[
				0,
				0.6074696779251099,
				0
			]
		}
	],
	"materials":[
		{
			"alphaMode":"BLEND",
			"doubleSided":true,
			"emissiveFactor":[
				0.0026709255762398243,
				1,
				0
			],
			"extensions":{
				"KHR_materials_emissive_strength":{
					"emissiveStrength":1.2999999523162842
				}
			},
			"name":"Material.011",
			"pbrMetallicRoughness":{
				"baseColorFactor":[
					0,
					0.8004492521286011,
					0.0034427442587912083,
					0.2763819098472595
				],
				"metallicFactor":0,
				"roughnessFactor":0.5
			}
		}
	],
	"meshes":[
		{
			"name":"Text",
			"primitives":[
				{
					"attributes":{
						"POSITION":0,
						"NORMAL":1,
						"TEXCOORD_0":2
					},
					"indices":3,
					"material":0
				}
			]
		}
	],
	"accessors":[
		{
			"bufferView":0,
			"componentType":5126,
			"count":59096,
			"max":[
				3.281008005142212,
				-0.00029625208117067814,
				0.8450825214385986
			],
			"min":[
				-3.2809178829193115,
				-0.16168956458568573,
				-0.8445897102355957
			],
			"type":"VEC3"
		},
		{
			"bufferView":1,
			"componentType":5126,
			"count":59096,
			"type":"VEC3"
		},
		{
			"bufferView":2,
			"componentType":5126,
			"count":59096,
			"type":"VEC2"
		},
		{
			"bufferView":3,
			"componentType":5123,
			"count":234000,
			"type":"SCALAR"
		}
	],
	"bufferViews":[
		{
			"buffer":0,
			"byteLength":709152,
			"byteOffset":0,
			"target":34962
		},
		{
			"buffer":0,
			"byteLength":709152,
			"byteOffset":709152,
			"target":34962
		},
		{
			"buffer":0,
			"byteLength":472768,
			"byteOffset":1418304,
			"target":34962
		},
		{
			"buffer":0,
			"byteLength":468000,
			"byteOffset":1891072,
			"target":34963
		}
	],
	"buffers":[
		{
			"byteLength":2359072,
			"uri":"MissionTableText.bin"
		}
	]
}
