{
	"asset":{
		"generator":"Khronos glTF Blender I/O v4.5.48",
		"version":"2.0"
	},
	"scene":0,
	"scenes":[
		{
			"name":"Scene",
			"nodes":[
				0,
				1
			]
		}
	],
	"nodes":[
		{
			"mesh":0,
			"name":"Cylinder.003"
		},
		{
			"name":"B\u00e9zierCircle",
			"scale":[
				0.8085548281669617,
				0.1837930679321289,
				0.8085548281669617
			],
			"translation":[
				0,
				0.6109502911567688,
				0
			]
		}
	],
	"materials":[
		{
			"doubleSided":true,
			"name":"Ship",
			"pbrMetallicRoughness":{
				"baseColorFactor":[
					0.14159438014030457,
					0.12022318691015244,
					0.16504591703414917,
					1
				],
				"metallicFactor":0.539130449295044,
				"roughnessFactor":0.7347825765609741
			}
		},
		{
			"doubleSided":true,
			"emissiveFactor":[
				0,
				0.23625611409569203,
				0.01019287969441729
			],
			"name":"PlaceholderScreen",
			"pbrMetallicRoughness":{
				"baseColorFactor":[
					0,
					0.11911102384328842,
					0.00200830539688468,
					1
				],
				"metallicFactor":0,
				"roughnessFactor":0.5
			}
		}
	],
	"meshes":[
		{
			"name":"Cylinder.004",
			"primitives":[
				{
					"attributes":{
						"POSITION":0,
						"NORMAL":1,
						"TEXCOORD_0":2
					},
					"indices":3,
					"material":0
				},
				{
					"attributes":{
						"POSITION":4,
						"NORMAL":5,
						"TEXCOORD_0":6
					},
					"indices":7,
					"material":1
				}
			]
		}
	],
	"accessors":[
		{
			"bufferView":0,
			"componentType":5126,
			"count":434,
			"max":[
				1,
				0.6000000238418579,
				1
			],
			"min":[
				-1,
				0,
				-1
			],
			"type":"VEC3"
		},
		{
			"bufferView":1,
			"componentType":5126,
			"count":434,
			"type":"VEC3"
		},
		{
			"bufferView":2,
			"componentType":5126,
			"count":434,
			"type":"VEC2"
		},
		{
			"bufferView":3,
			"componentType":5123,
			"count":1290,
			"type":"SCALAR"
		},
		{
			"bufferView":4,
			"componentType":5126,
			"count":48,
			"max":[
				0.864718496799469,
				0.5701357126235962,
				0.864718496799469
			],
			"min":[
				-0.864718496799469,
				0.5701357126235962,
				-0.864718496799469
			],
			"type":"VEC3"
		},
		{
			"bufferView":5,
			"componentType":5126,
			"count":48,
			"type":"VEC3"
		},
		{
			"bufferView":6,
			"componentType":5126,
			"count":48,
			"type":"VEC2"
		},
		{
			"bufferView":7,
			"componentType":5123,
			"count":138,
			"type":"SCALAR"
		}
	],
	"bufferViews":[
		{
			"buffer":0,
			"byteLength":5208,
			"byteOffset":0,
			"target":34962
		},
		{
			"buffer":0,
			"byteLength":5208,
			"byteOffset":5208,
			"target":34962
		},
		{
			"buffer":0,
			"byteLength":3472,
			"byteOffset":10416,
			"target":34962
		},
		{
			"buffer":0,
			"byteLength":2580,
			"byteOffset":13888,
			"target":34963
		},
		{
			"buffer":0,
			"byteLength":576,
			"byteOffset":16468,
			"target":34962
		},
		{
			"buffer":0,
			"byteLength":576,
			"byteOffset":17044,
			"target":34962
		},
		{
			"buffer":0,
			"byteLength":384,
			"byteOffset":17620,
			"target":34962
		},
		{
			"buffer":0,
			"byteLength":276,
			"byteOffset":18004,
			"target":34963
		}
	],
	"buffers":[
		{
			"byteLength":18280,
			"uri":"MissionTable.bin"
		}
	]
}
