{
	"asset":{
		"generator":"Khronos glTF Blender I/O v4.5.48",
		"version":"2.0"
	},
	"scene":0,
	"scenes":[
		{
			"name":"Scene",
			"nodes":[
				0
			]
		}
	],
	"nodes":[
		{
			"mesh":0,
			"name":"Cube.006",
			"scale":[
				0.682971715927124,
				0.5245141386985779,
				0.1054907962679863
			]
		}
	],
	"materials":[
		{
			"doubleSided":true,
			"emissiveFactor":[
				0,
				0.23625611409569203,
				0.01019287969441729
			],
			"name":"PlaceholderScreen",
			"pbrMetallicRoughness":{
				"baseColorFactor":[
					0,
					0.11911102384328842,
					0.00200830539688468,
					1
				],
				"metallicFactor":0,
				"roughnessFactor":0.5
			}
		},
		{
			"doubleSided":true,
			"name":"Ship",
			"pbrMetallicRoughness":{
				"baseColorFactor":[
					0.14159438014030457,
					0.12022318691015244,
					0.16504591703414917,
					1
				],
				"metallicFactor":0.539130449295044,
				"roughnessFactor":0.7347825765609741
			}
		}
	],
	"meshes":[
		{
			"name":"Cube.010",
			"primitives":[
				{
					"attributes":{
						"POSITION":0,
						"NORMAL":1,
						"TEXCOORD_0":2
					},
					"indices":3,
					"material":0
				},
				{
					"attributes":{
						"POSITION":4,
						"NORMAL":5,
						"TEXCOORD_0":6
					},
					"indices":7,
					"material":1
				}
			]
		}
	],
	"accessors":[
		{
			"bufferView":0,
			"componentType":5126,
			"count":4,
			"max":[
				0.8985313177108765,
				0.8985313177108765,
				-0.4928409457206726
			],
			"min":[
				-0.8985313177108765,
				-0.8985313177108765,
				-0.4928409457206726
			],
			"type":"VEC3"
		},
		{
			"bufferView":1,
			"componentType":5126,
			"count":4,
			"type":"VEC3"
		},
		{
			"bufferView":2,
			"componentType":5126,
			"count":4,
			"type":"VEC2"
		},
		{
			"bufferView":3,
			"componentType":5123,
			"count":6,
			"type":"SCALAR"
		},
		{
			"bufferView":4,
			"componentType":5126,
			"count":44,
			"max":[
				1,
				1,
				1
			],
			"min":[
				-1,
				-1,
				-1
			],
			"type":"VEC3"
		},
		{
			"bufferView":5,
			"componentType":5126,
			"count":44,
			"type":"VEC3"
		},
		{
			"bufferView":6,
			"componentType":5126,
			"count":44,
			"type":"VEC2"
		},
		{
			"bufferView":7,
			"componentType":5123,
			"count":78,
			"type":"SCALAR"
		}
	],
	"bufferViews":[
		{
			"buffer":0,
			"byteLength":48,
			"byteOffset":0,
			"target":34962
		},
		{
			"buffer":0,
			"byteLength":48,
			"byteOffset":48,
			"target":34962
		},
		{
			"buffer":0,
			"byteLength":32,
			"byteOffset":96,
			"target":34962
		},
		{
			"buffer":0,
			"byteLength":12,
			"byteOffset":128,
			"target":34963
		},
		{
			"buffer":0,
			"byteLength":528,
			"byteOffset":140,
			"target":34962
		},
		{
			"buffer":0,
			"byteLength":528,
			"byteOffset":668,
			"target":34962
		},
		{
			"buffer":0,
			"byteLength":352,
			"byteOffset":1196,
			"target":34962
		},
		{
			"buffer":0,
			"byteLength":156,
			"byteOffset":1548,
			"target":34963
		}
	],
	"buffers":[
		{
			"byteLength":1704,
			"uri":"OverchargeStation.bin"
		}
	]
}
