{
	"asset":{
		"generator":"Khronos glTF Blender I/O v4.5.48",
		"version":"2.0"
	},
	"scene":0,
	"scenes":[
		{
			"name":"Scene",
			"nodes":[
				0
			]
		}
	],
	"nodes":[
		{
			"mesh":0,
			"name":"Icosphere"
		}
	],
	"materials":[
		{
			"alphaMode":"BLEND",
			"doubleSided":true,
			"name":"Material.001",
			"pbrMetallicRoughness":{
				"baseColorFactor":[
					0.800000011920929,
					0.800000011920929,
					0.800000011920929,
					0.26153844594955444
				],
				"metallicFactor":0
			}
		},
		{
			"doubleSided":true,
			"name":"Land",
			"pbrMetallicRoughness":{
				"baseColorFactor":[
					0.026398323476314545,
					0.23821799457073212,
					0.025566967204213142,
					1
				],
				"metallicFactor":0
			}
		},
		{
			"doubleSided":true,
			"name":"Sea",
			"pbrMetallicRoughness":{
				"baseColorFactor":[
					0.028655793517827988,
					0.06578362733125687,
					0.2773652970790863,
					1
				],
				"metallicFactor":0
			}
		}
	],
	"meshes":[
		{
			"name":"Icosphere.002",
			"primitives":[
				{
					"attributes":{
						"POSITION":0,
						"NORMAL":1,
						"TEXCOORD_0":2
					},
					"indices":3,
					"material":0
				},
				{
					"attributes":{
						"POSITION":4,
						"NORMAL":5,
						"TEXCOORD_0":6
					},
					"indices":7,
					"material":1
				},
				{
					"attributes":{
						"POSITION":8,
						"NORMAL":9,
						"TEXCOORD_0":10
					},
					"indices":11,
					"material":2
				}
			]
		}
	],
	"accessors":[
		{
			"bufferView":0,
			"componentType":5126,
			"count":2924,
			"max":[
				1.0993125438690186,
				1.0998518466949463,
				1.0999603271484375
			],
			"min":[
				-1.099252462387085,
				-1.0986433029174805,
				-1.0998634099960327
			],
			"type":"VEC3"
		},
		{
			"bufferView":1,
			"componentType":5126,
			"count":2924,
			"type":"VEC3"
		},
		{
			"bufferView":2,
			"componentType":5126,
			"count":2924,
			"type":"VEC2"
		},
		{
			"bufferView":3,
			"componentType":5123,
			"count":8958,
			"type":"SCALAR"
		},
		{
			"bufferView":4,
			"componentType":5126,
			"count":1634,
			"max":[
				1.0093424320220947,
				1.0067493915557861,
				1.0042015314102173
			],
			"min":[
				-1.0096440315246582,
				-0.9821296334266663,
				-1.010061264038086
			],
			"type":"VEC3"
		},
		{
			"bufferView":5,
			"componentType":5126,
			"count":1634,
			"type":"VEC3"
		},
		{
			"bufferView":6,
			"componentType":5126,
			"count":1634,
			"type":"VEC2"
		},
		{
			"bufferView":7,
			"componentType":5123,
			"count":5589,
			"type":"SCALAR"
		},
		{
			"bufferView":8,
			"componentType":5126,
			"count":1309,
			"max":[
				0.9985532164573669,
				0.9999361634254456,
				0.9981328845024109
			],
			"min":[
				-0.9998605847358704,
				-0.9999154210090637,
				-1.0000399351119995
			],
			"type":"VEC3"
		},
		{
			"bufferView":9,
			"componentType":5126,
			"count":1309,
			"type":"VEC3"
		},
		{
			"bufferView":10,
			"componentType":5126,
			"count":1309,
			"type":"VEC2"
		},
		{
			"bufferView":11,
			"componentType":5123,
			"count":7344,
			"type":"SCALAR"
		}
	],
	"bufferViews":[
		{
			"buffer":0,
			"byteLength":35088,
			"byteOffset":0,
			"target":34962
		},
		{
			"buffer":0,
			"byteLength":35088,
			"byteOffset":35088,
			"target":34962
		},
		{
			"buffer":0,
			"byteLength":23392,
			"byteOffset":70176,
			"target":34962
		},
		{
			"buffer":0,
			"byteLength":17916,
			"byteOffset":93568,
			"target":34963
		},
		{
			"buffer":0,
			"byteLength":19608,
			"byteOffset":111484,
			"target":34962
		},
		{
			"buffer":0,
			"byteLength":19608,
			"byteOffset":131092,
			"target":34962
		},
		{
			"buffer":0,
			"byteLength":13072,
			"byteOffset":150700,
			"target":34962
		},
		{
			"buffer":0,
			"byteLength":11178,
			"byteOffset":163772,
			"target":34963
		},
		{
			"buffer":0,
			"byteLength":15708,
			"byteOffset":174952,
			"target":34962
		},
		{
			"buffer":0,
			"byteLength":15708,
			"byteOffset":190660,
			"target":34962
		},
		{
			"buffer":0,
			"byteLength":10472,
			"byteOffset":206368,
			"target":34962
		},
		{
			"buffer":0,
			"byteLength":14688,
			"byteOffset":216840,
			"target":34963
		}
	],
	"buffers":[
		{
			"byteLength":231528,
			"uri":"Planet1.bin"
		}
	]
}
