{
	"asset":{
		"generator":"Khronos glTF Blender I/O v4.5.48",
		"version":"2.0"
	},
	"extensionsUsed":[
		"KHR_materials_emissive_strength"
	],
	"scene":0,
	"scenes":[
		{
			"name":"Scene",
			"nodes":[
				6
			]
		}
	],
	"nodes":[
		{
			"mesh":0,
			"name":"Cylinder.002",
			"rotation":[
				-8.092263747982997e-09,
				-0.9207045435905457,
				1.6184518614181798e-08,
				0.39026036858558655
			],
			"scale":[
				1,
				1.0000001192092896,
				1
			],
			"translation":[
				9.74019194970423e-15,
				-1.0000001192092896,
				-4.085333671355329e-08
			]
		},
		{
			"children":[
				0
			],
			"name":"Bone.001",
			"rotation":[
				-7.450581485102248e-09,
				1.1920927533992653e-07,
				0,
				1
			],
			"scale":[
				1,
				0.9999999403953552,
				1
			],
			"translation":[
				0,
				0.5,
				0
			]
		},
		{
			"mesh":1,
			"name":"Cylinder.001",
			"translation":[
				0,
				-0.5,
				0
			]
		},
		{
			"children":[
				1,
				2
			],
			"name":"Bone.002",
			"translation":[
				0,
				0.5,
				0
			]
		},
		{
			"children":[
				3
			],
			"name":"Bone"
		},
		{
			"children":[
				4
			],
			"name":"Armature"
		},
		{
			"children":[
				5
			],
			"name":"Empty.003",
			"rotation":[
				0.1593329757452011,
				0,
				0,
				0.9872249960899353
			]
		}
	],
	"animations":[
		{
			"channels":[
				{
					"sampler":0,
					"target":{
						"node":4,
						"path":"translation"
					}
				},
				{
					"sampler":1,
					"target":{
						"node":4,
						"path":"rotation"
					}
				},
				{
					"sampler":2,
					"target":{
						"node":4,
						"path":"scale"
					}
				},
				{
					"sampler":3,
					"target":{
						"node":3,
						"path":"translation"
					}
				},
				{
					"sampler":4,
					"target":{
						"node":3,
						"path":"rotation"
					}
				},
				{
					"sampler":5,
					"target":{
						"node":3,
						"path":"scale"
					}
				},
				{
					"sampler":6,
					"target":{
						"node":1,
						"path":"translation"
					}
				},
				{
					"sampler":7,
					"target":{
						"node":1,
						"path":"rotation"
					}
				},
				{
					"sampler":8,
					"target":{
						"node":1,
						"path":"scale"
					}
				}
			],
			"name":"Spin",
			"samplers":[
				{
					"input":12,
					"interpolation":"STEP",
					"output":13
				},
				{
					"input":12,
					"interpolation":"STEP",
					"output":14
				},
				{
					"input":12,
					"interpolation":"STEP",
					"output":15
				},
				{
					"input":16,
					"interpolation":"LINEAR",
					"output":17
				},
				{
					"input":16,
					"interpolation":"LINEAR",
					"output":18
				},
				{
					"input":12,
					"interpolation":"STEP",
					"output":15
				},
				{
					"input":12,
					"interpolation":"STEP",
					"output":19
				},
				{
					"input":16,
					"interpolation":"LINEAR",
					"output":20
				},
				{
					"input":12,
					"interpolation":"STEP",
					"output":21
				}
			]
		}
	],
	"materials":[
		{
			"doubleSided":true,
			"name":"Atlas",
			"pbrMetallicRoughness":{
				"baseColorTexture":{
					"index":0
				},
				"metallicFactor":0,
				"roughnessFactor":0.8005181550979614
			}
		},
		{
			"doubleSided":true,
			"emissiveFactor":[
				1,
				1,
				1
			],
			"emissiveTexture":{
				"index":1
			},
			"extensions":{
				"KHR_materials_emissive_strength":{
					"emissiveStrength":1.5
				}
			},
			"name":"AtlasEmissive.002",
			"pbrMetallicRoughness":{
				"baseColorTexture":{
					"index":2
				},
				"metallicFactor":0,
				"roughnessFactor":0.5
			}
		}
	],
	"meshes":[
		{
			"name":"Cylinder.002",
			"primitives":[
				{
					"attributes":{
						"POSITION":0,
						"NORMAL":1,
						"TEXCOORD_0":2
					},
					"indices":3,
					"material":0
				},
				{
					"attributes":{
						"POSITION":4,
						"NORMAL":5,
						"TEXCOORD_0":6
					},
					"indices":7,
					"material":1
				}
			]
		},
		{
			"name":"Cylinder.001",
			"primitives":[
				{
					"attributes":{
						"POSITION":8,
						"NORMAL":9,
						"TEXCOORD_0":10
					},
					"indices":11,
					"material":0
				}
			]
		}
	],
	"textures":[
		{
			"sampler":0,
			"source":0
		},
		{
			"sampler":0,
			"source":0
		},
		{
			"sampler":0,
			"source":0
		}
	],
	"images":[
		{
			"mimeType":"image/png",
			"name":"texture_atlas",
			"uri":"texture_atlas.png"
		}
	],
	"accessors":[
		{
			"bufferView":0,
			"componentType":5126,
			"count":557,
			"max":[
				1.1804614067077637,
				0.14100180566310883,
				1.1825309991836548
			],
			"min":[
				-1.1804614067077637,
				-0.001018136739730835,
				-1.1825309991836548
			],
			"type":"VEC3"
		},
		{
			"bufferView":1,
			"componentType":5126,
			"count":557,
			"type":"VEC3"
		},
		{
			"bufferView":2,
			"componentType":5126,
			"count":557,
			"type":"VEC2"
		},
		{
			"bufferView":3,
			"componentType":5123,
			"count":2472,
			"type":"SCALAR"
		},
		{
			"bufferView":4,
			"componentType":5126,
			"count":24,
			"max":[
				0.9332355856895447,
				0.09078173339366913,
				0.9353052377700806
			],
			"min":[
				-0.9332355856895447,
				0.06212123483419418,
				-0.9353052377700806
			],
			"type":"VEC3"
		},
		{
			"bufferView":5,
			"componentType":5126,
			"count":24,
			"type":"VEC3"
		},
		{
			"bufferView":6,
			"componentType":5126,
			"count":24,
			"type":"VEC2"
		},
		{
			"bufferView":7,
			"componentType":5123,
			"count":48,
			"type":"SCALAR"
		},
		{
			"bufferView":8,
			"componentType":5126,
			"count":848,
			"max":[
				0.8505954146385193,
				0.48773425817489624,
				0.8526650071144104
			],
			"min":[
				-0.8505954146385193,
				0.14100177586078644,
				-0.8526650071144104
			],
			"type":"VEC3"
		},
		{
			"bufferView":9,
			"componentType":5126,
			"count":848,
			"type":"VEC3"
		},
		{
			"bufferView":10,
			"componentType":5126,
			"count":848,
			"type":"VEC2"
		},
		{
			"bufferView":11,
			"componentType":5123,
			"count":3360,
			"type":"SCALAR"
		},
		{
			"bufferView":12,
			"componentType":5126,
			"count":2,
			"max":[
				8
			],
			"min":[
				0.03333333333333333
			],
			"type":"SCALAR"
		},
		{
			"bufferView":13,
			"componentType":5126,
			"count":2,
			"type":"VEC3"
		},
		{
			"bufferView":14,
			"componentType":5126,
			"count":2,
			"type":"VEC4"
		},
		{
			"bufferView":15,
			"componentType":5126,
			"count":2,
			"type":"VEC3"
		},
		{
			"bufferView":16,
			"componentType":5126,
			"count":240,
			"max":[
				8
			],
			"min":[
				0.03333333333333333
			],
			"type":"SCALAR"
		},
		{
			"bufferView":17,
			"componentType":5126,
			"count":240,
			"type":"VEC3"
		},
		{
			"bufferView":18,
			"componentType":5126,
			"count":240,
			"type":"VEC4"
		},
		{
			"bufferView":19,
			"componentType":5126,
			"count":2,
			"type":"VEC3"
		},
		{
			"bufferView":20,
			"componentType":5126,
			"count":240,
			"type":"VEC4"
		},
		{
			"bufferView":21,
			"componentType":5126,
			"count":2,
			"type":"VEC3"
		}
	],
	"bufferViews":[
		{
			"buffer":0,
			"byteLength":6684,
			"byteOffset":0,
			"target":34962
		},
		{
			"buffer":0,
			"byteLength":6684,
			"byteOffset":6684,
			"target":34962
		},
		{
			"buffer":0,
			"byteLength":4456,
			"byteOffset":13368,
			"target":34962
		},
		{
			"buffer":0,
			"byteLength":4944,
			"byteOffset":17824,
			"target":34963
		},
		{
			"buffer":0,
			"byteLength":288,
			"byteOffset":22768,
			"target":34962
		},
		{
			"buffer":0,
			"byteLength":288,
			"byteOffset":23056,
			"target":34962
		},
		{
			"buffer":0,
			"byteLength":192,
			"byteOffset":23344,
			"target":34962
		},
		{
			"buffer":0,
			"byteLength":96,
			"byteOffset":23536,
			"target":34963
		},
		{
			"buffer":0,
			"byteLength":10176,
			"byteOffset":23632,
			"target":34962
		},
		{
			"buffer":0,
			"byteLength":10176,
			"byteOffset":33808,
			"target":34962
		},
		{
			"buffer":0,
			"byteLength":6784,
			"byteOffset":43984,
			"target":34962
		},
		{
			"buffer":0,
			"byteLength":6720,
			"byteOffset":50768,
			"target":34963
		},
		{
			"buffer":0,
			"byteLength":8,
			"byteOffset":57488
		},
		{
			"buffer":0,
			"byteLength":24,
			"byteOffset":57496
		},
		{
			"buffer":0,
			"byteLength":32,
			"byteOffset":57520
		},
		{
			"buffer":0,
			"byteLength":24,
			"byteOffset":57552
		},
		{
			"buffer":0,
			"byteLength":960,
			"byteOffset":57576
		},
		{
			"buffer":0,
			"byteLength":2880,
			"byteOffset":58536
		},
		{
			"buffer":0,
			"byteLength":3840,
			"byteOffset":61416
		},
		{
			"buffer":0,
			"byteLength":24,
			"byteOffset":65256
		},
		{
			"buffer":0,
			"byteLength":3840,
			"byteOffset":65280
		},
		{
			"buffer":0,
			"byteLength":24,
			"byteOffset":69120
		}
	],
	"samplers":[
		{
			"magFilter":9729,
			"minFilter":9987
		}
	],
	"buffers":[
		{
			"byteLength":69144,
			"uri":"Saucer.bin"
		}
	]
}
