{
	"asset":{
		"generator":"Khronos glTF Blender I/O v4.5.48",
		"version":"2.0"
	},
	"extensionsUsed":[
		"KHR_materials_emissive_strength"
	],
	"scene":0,
	"scenes":[
		{
			"name":"Scene",
			"nodes":[
				11,
				12,
				13
			]
		}
	],
	"nodes":[
		{
			"mesh":0,
			"name":"Cockpit"
		},
		{
			"mesh":1,
			"name":"Cockpit.001"
		},
		{
			"mesh":2,
			"name":"CombatPlatform"
		},
		{
			"mesh":3,
			"name":"Cylinder.005",
			"scale":[
				0.965896487236023,
				1,
				0.965896487236023
			],
			"translation":[
				-3.0517578125e-05,
				5.7692718505859375,
				-0.09202194213867188
			]
		},
		{
			"mesh":4,
			"name":"EngineConduit"
		},
		{
			"mesh":5,
			"name":"Hose",
			"translation":[
				0,
				0.055545806884765625,
				0
			]
		},
		{
			"mesh":6,
			"name":"Text",
			"rotation":[
				0.5,
				0.5,
				-0.5,
				0.4999999701976776
			],
			"scale":[
				0.49780070781707764,
				1,
				0.49780070781707764
			],
			"translation":[
				-10.603378295898438,
				4.962623596191406,
				7.714607238769531
			]
		},
		{
			"children":[
				6
			],
			"mesh":7,
			"name":"Leaderboard"
		},
		{
			"mesh":8,
			"name":"Pillar",
			"translation":[
				0,
				-1.5633316040039062,
				11.724472045898438
			]
		},
		{
			"mesh":9,
			"name":"Railing",
			"translation":[
				0,
				0.8612442016601562,
				0
			]
		},
		{
			"mesh":10,
			"name":"Windows"
		},
		{
			"children":[
				0,
				1,
				2,
				3,
				4,
				5,
				7,
				8,
				9,
				10
			],
			"name":"ShipOrigin",
			"translation":[
				-64,
				62,
				64
			]
		},
		{
			"mesh":11,
			"name":"Plane.004"
		},
		{
			"mesh":12,
			"name":"Plane.005",
			"translation":[
				0,
				0,
				2
			]
		}
	],
	"materials":[
		{
			"doubleSided":true,
			"name":"Metal",
			"pbrMetallicRoughness":{
				"baseColorFactor":[
					0.14126233756542206,
					0.1195385530591011,
					0.16513225436210632,
					1
				],
				"metallicFactor":0.7501852512359619,
				"roughnessFactor":0.609154462814331
			}
		},
		{
			"doubleSided":true,
			"name":"MetalDarker",
			"pbrMetallicRoughness":{
				"baseColorFactor":[
					0.08224207162857056,
					0.07000201940536499,
					0.09564603865146637,
					1
				],
				"metallicFactor":0.7501852512359619,
				"roughnessFactor":0.609154462814331
			}
		},
		{
			"doubleSided":true,
			"emissiveFactor":[
				0,
				1,
				0.0058735692873597145
			],
			"name":"SafeGlow",
			"pbrMetallicRoughness":{
				"baseColorFactor":[
					0,
					0.8003076910972595,
					0.016926880925893784,
					1
				],
				"metallicFactor":0,
				"roughnessFactor":0.5
			}
		},
		{
			"doubleSided":true,
			"emissiveFactor":[
				0,
				0.12257240001220104,
				0.800000011920929
			],
			"name":"Material.005",
			"pbrMetallicRoughness":{
				"baseColorFactor":[
					0,
					0.13750511407852173,
					0.8003705143928528,
					1
				],
				"metallicFactor":0
			}
		},
		{
			"doubleSided":true,
			"name":"Material.006",
			"pbrMetallicRoughness":{
				"baseColorFactor":[
					0.04861366003751755,
					0.09133172035217285,
					0.17012417316436768,
					1
				],
				"metallicFactor":0,
				"roughnessFactor":0.5
			}
		},
		{
			"doubleSided":true,
			"emissiveFactor":[
				0.38165944802469626,
				0,
				1
			],
			"extensions":{
				"KHR_materials_emissive_strength":{
					"emissiveStrength":1.198654443025589
				}
			},
			"name":"WeaponGlow",
			"pbrMetallicRoughness":{
				"baseColorFactor":[
					0.3049851953983307,
					0,
					0.7991029620170593,
					1
				],
				"metallicFactor":0,
				"roughnessFactor":0.5
			}
		},
		{
			"alphaMode":"BLEND",
			"doubleSided":true,
			"name":"Glass",
			"pbrMetallicRoughness":{
				"baseColorFactor":[
					0.05969283729791641,
					0.07234962284564972,
					0.11911062896251678,
					0.27826088666915894
				],
				"metallicFactor":0,
				"roughnessFactor":0.3086956739425659
			}
		},
		{
			"doubleSided":true,
			"name":"Metal_Plate.011",
			"normalTexture":{
				"index":0
			},
			"pbrMetallicRoughness":{
				"baseColorTexture":{
					"index":1
				},
				"metallicRoughnessTexture":{
					"index":2
				}
			}
		},
		{
			"doubleSided":true,
			"name":"SciFi.Wall.003",
			"normalTexture":{
				"index":3
			},
			"pbrMetallicRoughness":{
				"baseColorTexture":{
					"index":4
				},
				"metallicRoughnessTexture":{
					"index":5
				}
			}
		}
	],
	"meshes":[
		{
			"name":"Cube.002",
			"primitives":[
				{
					"attributes":{
						"POSITION":0,
						"NORMAL":1,
						"TEXCOORD_0":2
					},
					"indices":3,
					"material":0
				},
				{
					"attributes":{
						"POSITION":4,
						"NORMAL":5,
						"TEXCOORD_0":6
					},
					"indices":7,
					"material":1
				}
			]
		},
		{
			"name":"Cube.015",
			"primitives":[
				{
					"attributes":{
						"POSITION":8,
						"NORMAL":9,
						"TEXCOORD_0":10
					},
					"indices":11,
					"material":1
				}
			]
		},
		{
			"name":"Cube.005",
			"primitives":[
				{
					"attributes":{
						"POSITION":12,
						"NORMAL":13,
						"TEXCOORD_0":14
					},
					"indices":15,
					"material":0
				},
				{
					"attributes":{
						"POSITION":16,
						"NORMAL":17,
						"TEXCOORD_0":18
					},
					"indices":19,
					"material":2
				},
				{
					"attributes":{
						"POSITION":20,
						"NORMAL":21,
						"TEXCOORD_0":22
					},
					"indices":23,
					"material":1
				}
			]
		},
		{
			"name":"Cylinder.006",
			"primitives":[
				{
					"attributes":{
						"POSITION":24,
						"NORMAL":25,
						"TEXCOORD_0":26
					},
					"indices":27,
					"material":0
				},
				{
					"attributes":{
						"POSITION":28,
						"NORMAL":29,
						"TEXCOORD_0":30
					},
					"indices":31,
					"material":1
				}
			]
		},
		{
			"name":"Cube.008",
			"primitives":[
				{
					"attributes":{
						"POSITION":32,
						"NORMAL":33,
						"TEXCOORD_0":34
					},
					"indices":35,
					"material":0
				}
			]
		},
		{
			"name":"Hose",
			"primitives":[
				{
					"attributes":{
						"POSITION":36,
						"NORMAL":37,
						"TEXCOORD_0":38
					},
					"indices":39,
					"material":1
				},
				{
					"attributes":{
						"POSITION":40,
						"NORMAL":41,
						"TEXCOORD_0":42
					},
					"indices":43,
					"material":2
				}
			]
		},
		{
			"name":"Text.001",
			"primitives":[
				{
					"attributes":{
						"POSITION":44,
						"NORMAL":45,
						"TEXCOORD_0":46
					},
					"indices":47,
					"material":3
				}
			]
		},
		{
			"name":"Cube.006",
			"primitives":[
				{
					"attributes":{
						"POSITION":48,
						"NORMAL":49,
						"TEXCOORD_0":50
					},
					"indices":51,
					"material":4
				}
			]
		},
		{
			"name":"Cylinder.003",
			"primitives":[
				{
					"attributes":{
						"POSITION":52,
						"NORMAL":53,
						"TEXCOORD_0":54
					},
					"indices":55,
					"material":0
				},
				{
					"attributes":{
						"POSITION":56,
						"NORMAL":57,
						"TEXCOORD_0":58
					},
					"indices":59,
					"material":5
				},
				{
					"attributes":{
						"POSITION":60,
						"NORMAL":61,
						"TEXCOORD_0":62
					},
					"indices":63,
					"material":1
				}
			]
		},
		{
			"name":"Railing",
			"primitives":[
				{
					"attributes":{
						"POSITION":64,
						"NORMAL":65,
						"TEXCOORD_0":66
					},
					"indices":67,
					"material":1
				}
			]
		},
		{
			"name":"Cube.001",
			"primitives":[
				{
					"attributes":{
						"POSITION":68,
						"NORMAL":69,
						"TEXCOORD_0":70
					},
					"indices":71,
					"material":6
				}
			]
		},
		{
			"name":"Plane.008",
			"primitives":[
				{
					"attributes":{
						"POSITION":72,
						"NORMAL":73,
						"TEXCOORD_0":74
					},
					"indices":75,
					"material":7
				}
			]
		},
		{
			"name":"Plane.009",
			"primitives":[
				{
					"attributes":{
						"POSITION":76,
						"NORMAL":77,
						"TEXCOORD_0":78
					},
					"indices":75,
					"material":8
				}
			]
		}
	],
	"textures":[
		{
			"sampler":0,
			"source":0
		},
		{
			"sampler":0,
			"source":1
		},
		{
			"sampler":0,
			"source":2
		},
		{
			"sampler":0,
			"source":3
		},
		{
			"sampler":0,
			"source":4
		},
		{
			"sampler":0,
			"source":5
		}
	],
	"images":[
		{
			"mimeType":"image/jpeg",
			"name":"Metal_Plate_011_normal",
			"uri":"Metal_Plate_011_normal.jpg"
		},
		{
			"mimeType":"image/jpeg",
			"name":"Metal_Plate_011_basecolor",
			"uri":"Metal_Plate_011_basecolor.jpg"
		},
		{
			"mimeType":"image/png",
			"name":"Metal_Plate_011_metallic-Metal_Plate_011_roughness",
			"uri":"Metal_Plate_011_metallic-Metal_Plate_011_roughness.png"
		},
		{
			"mimeType":"image/jpeg",
			"name":"Sci-Fi_Wall_003_normal",
			"uri":"Sci-Fi_Wall_003_normal.jpg"
		},
		{
			"mimeType":"image/jpeg",
			"name":"Sci-Fi_Wall_003_basecolor",
			"uri":"Sci-Fi_Wall_003_basecolor.jpg"
		},
		{
			"mimeType":"image/png",
			"name":"Sci-Fi_Wall_003_metallic.jpg-Sci-Fi_Wall_003_roughness.jpg",
			"uri":"Sci-Fi_Wall_003_metallic.jpg-Sci-Fi_Wall_003_roughness.jpg.png"
		}
	],
	"accessors":[
		{
			"bufferView":0,
			"componentType":5126,
			"count":320,
			"max":[
				10.851682662963867,
				6.426048278808594,
				26.002384185791016
			],
			"min":[
				-10.851696968078613,
				-1.7492121458053589,
				-12.705690383911133
			],
			"type":"VEC3"
		},
		{
			"bufferView":1,
			"componentType":5126,
			"count":320,
			"type":"VEC3"
		},
		{
			"bufferView":2,
			"componentType":5126,
			"count":320,
			"type":"VEC2"
		},
		{
			"bufferView":3,
			"componentType":5123,
			"count":564,
			"type":"SCALAR"
		},
		{
			"bufferView":4,
			"componentType":5126,
			"count":32,
			"max":[
				10.706542015075684,
				0.26579609513282776,
				-3.5929605960845947
			],
			"min":[
				-10.706562042236328,
				-1.6315563917160034,
				-12.530385971069336
			],
			"type":"VEC3"
		},
		{
			"bufferView":5,
			"componentType":5126,
			"count":32,
			"type":"VEC3"
		},
		{
			"bufferView":6,
			"componentType":5126,
			"count":32,
			"type":"VEC2"
		},
		{
			"bufferView":7,
			"componentType":5123,
			"count":48,
			"type":"SCALAR"
		},
		{
			"bufferView":8,
			"componentType":5126,
			"count":96,
			"max":[
				10.825050354003906,
				7.271944999694824,
				1.6922876834869385
			],
			"min":[
				-10.825065612792969,
				-1.1949032545089722,
				-13.536649703979492
			],
			"type":"VEC3"
		},
		{
			"bufferView":9,
			"componentType":5126,
			"count":96,
			"type":"VEC3"
		},
		{
			"bufferView":10,
			"componentType":5126,
			"count":96,
			"type":"VEC2"
		},
		{
			"bufferView":11,
			"componentType":5123,
			"count":144,
			"type":"SCALAR"
		},
		{
			"bufferView":12,
			"componentType":5126,
			"count":192,
			"max":[
				10.851677894592285,
				-0.19604644179344177,
				2.8529319763183594
			],
			"min":[
				-10.851696968078613,
				-1.5963211059570312,
				-12.705690383911133
			],
			"type":"VEC3"
		},
		{
			"bufferView":13,
			"componentType":5126,
			"count":192,
			"type":"VEC3"
		},
		{
			"bufferView":14,
			"componentType":5126,
			"count":192,
			"type":"VEC2"
		},
		{
			"bufferView":15,
			"componentType":5123,
			"count":342,
			"type":"SCALAR"
		},
		{
			"bufferView":16,
			"componentType":5126,
			"count":12,
			"max":[
				4.8392744064331055,
				-1.3181966543197632,
				-2.1796445846557617
			],
			"min":[
				-4.839297771453857,
				-1.458471417427063,
				-5.148695945739746
			],
			"type":"VEC3"
		},
		{
			"bufferView":17,
			"componentType":5126,
			"count":12,
			"type":"VEC3"
		},
		{
			"bufferView":18,
			"componentType":5126,
			"count":12,
			"type":"VEC2"
		},
		{
			"bufferView":19,
			"componentType":5123,
			"count":18,
			"type":"SCALAR"
		},
		{
			"bufferView":20,
			"componentType":5126,
			"count":286,
			"max":[
				10.66980266571045,
				-0.09605859220027924,
				2.8529319763183594
			],
			"min":[
				-10.656861305236816,
				-1.6646302938461304,
				-5.548985958099365
			],
			"type":"VEC3"
		},
		{
			"bufferView":21,
			"componentType":5126,
			"count":286,
			"type":"VEC3"
		},
		{
			"bufferView":22,
			"componentType":5126,
			"count":286,
			"type":"VEC2"
		},
		{
			"bufferView":23,
			"componentType":5123,
			"count":534,
			"type":"SCALAR"
		},
		{
			"bufferView":24,
			"componentType":5126,
			"count":386,
			"max":[
				5.884276390075684,
				2.318427324295044,
				5.884231090545654
			],
			"min":[
				-5.884212493896484,
				-0.01319968793541193,
				-5.8842573165893555
			],
			"type":"VEC3"
		},
		{
			"bufferView":25,
			"componentType":5126,
			"count":386,
			"type":"VEC3"
		},
		{
			"bufferView":26,
			"componentType":5126,
			"count":386,
			"type":"VEC2"
		},
		{
			"bufferView":27,
			"componentType":5123,
			"count":1140,
			"type":"SCALAR"
		},
		{
			"bufferView":28,
			"componentType":5126,
			"count":288,
			"max":[
				4.567311763763428,
				-0.01319968607276678,
				4.567266464233398
			],
			"min":[
				-4.5672478675842285,
				-0.2301817536354065,
				-4.5672926902771
			],
			"type":"VEC3"
		},
		{
			"bufferView":29,
			"componentType":5126,
			"count":288,
			"type":"VEC3"
		},
		{
			"bufferView":30,
			"componentType":5126,
			"count":288,
			"type":"VEC2"
		},
		{
			"bufferView":31,
			"componentType":5123,
			"count":864,
			"type":"SCALAR"
		},
		{
			"bufferView":32,
			"componentType":5126,
			"count":108,
			"max":[
				10.758234024047852,
				1.2410629987716675,
				20.488609313964844
			],
			"min":[
				-10.759000778198242,
				-1.5320583581924438,
				9.894014358520508
			],
			"type":"VEC3"
		},
		{
			"bufferView":33,
			"componentType":5126,
			"count":108,
			"type":"VEC3"
		},
		{
			"bufferView":34,
			"componentType":5126,
			"count":108,
			"type":"VEC2"
		},
		{
			"bufferView":35,
			"componentType":5123,
			"count":168,
			"type":"SCALAR"
		},
		{
			"bufferView":36,
			"componentType":5126,
			"count":717,
			"max":[
				11.61745548248291,
				6.28092622756958,
				10.023554801940918
			],
			"min":[
				-11.096872329711914,
				5.511224746704102,
				-7.531588077545166
			],
			"type":"VEC3"
		},
		{
			"bufferView":37,
			"componentType":5126,
			"count":717,
			"type":"VEC3"
		},
		{
			"bufferView":38,
			"componentType":5126,
			"count":717,
			"type":"VEC2"
		},
		{
			"bufferView":39,
			"componentType":5123,
			"count":2448,
			"type":"SCALAR"
		},
		{
			"bufferView":40,
			"componentType":5126,
			"count":18,
			"max":[
				7.004784107208252,
				5.914630889892578,
				-2.280219554901123
			],
			"min":[
				-7.008709907531738,
				5.601685047149658,
				-7.033752918243408
			],
			"type":"VEC3"
		},
		{
			"bufferView":41,
			"componentType":5126,
			"count":18,
			"type":"VEC3"
		},
		{
			"bufferView":42,
			"componentType":5126,
			"count":18,
			"type":"VEC2"
		},
		{
			"bufferView":43,
			"componentType":5123,
			"count":36,
			"type":"SCALAR"
		},
		{
			"bufferView":44,
			"componentType":5126,
			"count":315,
			"max":[
				7.547000408172607,
				0,
				0.009000000543892384
			],
			"min":[
				0.04800000041723251,
				0,
				-0.6910000443458557
			],
			"type":"VEC3"
		},
		{
			"bufferView":45,
			"componentType":5126,
			"count":315,
			"type":"VEC3"
		},
		{
			"bufferView":46,
			"componentType":5126,
			"count":315,
			"type":"VEC2"
		},
		{
			"bufferView":47,
			"componentType":5123,
			"count":909,
			"type":"SCALAR"
		},
		{
			"bufferView":48,
			"componentType":5126,
			"count":24,
			"max":[
				-10.633827209472656,
				5.570071220397949,
				7.894113540649414
			],
			"min":[
				-10.765175819396973,
				-0.7665873169898987,
				3.711763381958008
			],
			"type":"VEC3"
		},
		{
			"bufferView":49,
			"componentType":5126,
			"count":24,
			"type":"VEC3"
		},
		{
			"bufferView":50,
			"componentType":5126,
			"count":24,
			"type":"VEC2"
		},
		{
			"bufferView":51,
			"componentType":5123,
			"count":36,
			"type":"SCALAR"
		},
		{
			"bufferView":52,
			"componentType":5126,
			"count":520,
			"max":[
				2.9141831398010254,
				7.839569091796875,
				2.9141831398010254
			],
			"min":[
				-2.9141831398010254,
				0,
				-2.9141831398010254
			],
			"type":"VEC3"
		},
		{
			"bufferView":53,
			"componentType":5126,
			"count":520,
			"type":"VEC3"
		},
		{
			"bufferView":54,
			"componentType":5126,
			"count":520,
			"type":"VEC2"
		},
		{
			"bufferView":55,
			"componentType":5123,
			"count":1764,
			"type":"SCALAR"
		},
		{
			"bufferView":56,
			"componentType":5126,
			"count":66,
			"max":[
				1.1551324129104614,
				6.64123010635376,
				1.1551324129104614
			],
			"min":[
				-1.1551324129104614,
				2.550173282623291,
				-1.1551324129104614
			],
			"type":"VEC3"
		},
		{
			"bufferView":57,
			"componentType":5126,
			"count":66,
			"type":"VEC3"
		},
		{
			"bufferView":58,
			"componentType":5126,
			"count":66,
			"type":"VEC2"
		},
		{
			"bufferView":59,
			"componentType":5123,
			"count":144,
			"type":"SCALAR"
		},
		{
			"bufferView":60,
			"componentType":5126,
			"count":264,
			"max":[
				2.9141831398010254,
				7.839569091796875,
				2.9141831398010254
			],
			"min":[
				-2.9141831398010254,
				0,
				-2.9141831398010254
			],
			"type":"VEC3"
		},
		{
			"bufferView":61,
			"componentType":5126,
			"count":264,
			"type":"VEC3"
		},
		{
			"bufferView":62,
			"componentType":5126,
			"count":264,
			"type":"VEC2"
		},
		{
			"bufferView":63,
			"componentType":5123,
			"count":768,
			"type":"SCALAR"
		},
		{
			"bufferView":64,
			"componentType":5126,
			"count":214,
			"max":[
				5.571503162384033,
				0.08500000834465027,
				0.017641594633460045
			],
			"min":[
				-5.578956127166748,
				-1.9818660020828247,
				-5.388968467712402
			],
			"type":"VEC3"
		},
		{
			"bufferView":65,
			"componentType":5126,
			"count":214,
			"type":"VEC3"
		},
		{
			"bufferView":66,
			"componentType":5126,
			"count":214,
			"type":"VEC2"
		},
		{
			"bufferView":67,
			"componentType":5123,
			"count":492,
			"type":"SCALAR"
		},
		{
			"bufferView":68,
			"componentType":5126,
			"count":72,
			"max":[
				10.235804557800293,
				5.776930809020996,
				-0.34999629855155945
			],
			"min":[
				-10.235823631286621,
				0.8263759016990662,
				-12.2164945602417
			],
			"type":"VEC3"
		},
		{
			"bufferView":69,
			"componentType":5126,
			"count":72,
			"type":"VEC3"
		},
		{
			"bufferView":70,
			"componentType":5126,
			"count":72,
			"type":"VEC2"
		},
		{
			"bufferView":71,
			"componentType":5123,
			"count":108,
			"type":"SCALAR"
		},
		{
			"bufferView":72,
			"componentType":5126,
			"count":4,
			"max":[
				1,
				0,
				1
			],
			"min":[
				-1,
				0,
				-1
			],
			"type":"VEC3"
		},
		{
			"bufferView":73,
			"componentType":5126,
			"count":4,
			"type":"VEC3"
		},
		{
			"bufferView":74,
			"componentType":5126,
			"count":4,
			"type":"VEC2"
		},
		{
			"bufferView":75,
			"componentType":5123,
			"count":6,
			"type":"SCALAR"
		},
		{
			"bufferView":76,
			"componentType":5126,
			"count":4,
			"max":[
				1,
				0,
				1
			],
			"min":[
				-1,
				0,
				-1
			],
			"type":"VEC3"
		},
		{
			"bufferView":77,
			"componentType":5126,
			"count":4,
			"type":"VEC3"
		},
		{
			"bufferView":78,
			"componentType":5126,
			"count":4,
			"type":"VEC2"
		}
	],
	"bufferViews":[
		{
			"buffer":0,
			"byteLength":3840,
			"byteOffset":0,
			"target":34962
		},
		{
			"buffer":0,
			"byteLength":3840,
			"byteOffset":3840,
			"target":34962
		},
		{
			"buffer":0,
			"byteLength":2560,
			"byteOffset":7680,
			"target":34962
		},
		{
			"buffer":0,
			"byteLength":1128,
			"byteOffset":10240,
			"target":34963
		},
		{
			"buffer":0,
			"byteLength":384,
			"byteOffset":11368,
			"target":34962
		},
		{
			"buffer":0,
			"byteLength":384,
			"byteOffset":11752,
			"target":34962
		},
		{
			"buffer":0,
			"byteLength":256,
			"byteOffset":12136,
			"target":34962
		},
		{
			"buffer":0,
			"byteLength":96,
			"byteOffset":12392,
			"target":34963
		},
		{
			"buffer":0,
			"byteLength":1152,
			"byteOffset":12488,
			"target":34962
		},
		{
			"buffer":0,
			"byteLength":1152,
			"byteOffset":13640,
			"target":34962
		},
		{
			"buffer":0,
			"byteLength":768,
			"byteOffset":14792,
			"target":34962
		},
		{
			"buffer":0,
			"byteLength":288,
			"byteOffset":15560,
			"target":34963
		},
		{
			"buffer":0,
			"byteLength":2304,
			"byteOffset":15848,
			"target":34962
		},
		{
			"buffer":0,
			"byteLength":2304,
			"byteOffset":18152,
			"target":34962
		},
		{
			"buffer":0,
			"byteLength":1536,
			"byteOffset":20456,
			"target":34962
		},
		{
			"buffer":0,
			"byteLength":684,
			"byteOffset":21992,
			"target":34963
		},
		{
			"buffer":0,
			"byteLength":144,
			"byteOffset":22676,
			"target":34962
		},
		{
			"buffer":0,
			"byteLength":144,
			"byteOffset":22820,
			"target":34962
		},
		{
			"buffer":0,
			"byteLength":96,
			"byteOffset":22964,
			"target":34962
		},
		{
			"buffer":0,
			"byteLength":36,
			"byteOffset":23060,
			"target":34963
		},
		{
			"buffer":0,
			"byteLength":3432,
			"byteOffset":23096,
			"target":34962
		},
		{
			"buffer":0,
			"byteLength":3432,
			"byteOffset":26528,
			"target":34962
		},
		{
			"buffer":0,
			"byteLength":2288,
			"byteOffset":29960,
			"target":34962
		},
		{
			"buffer":0,
			"byteLength":1068,
			"byteOffset":32248,
			"target":34963
		},
		{
			"buffer":0,
			"byteLength":4632,
			"byteOffset":33316,
			"target":34962
		},
		{
			"buffer":0,
			"byteLength":4632,
			"byteOffset":37948,
			"target":34962
		},
		{
			"buffer":0,
			"byteLength":3088,
			"byteOffset":42580,
			"target":34962
		},
		{
			"buffer":0,
			"byteLength":2280,
			"byteOffset":45668,
			"target":34963
		},
		{
			"buffer":0,
			"byteLength":3456,
			"byteOffset":47948,
			"target":34962
		},
		{
			"buffer":0,
			"byteLength":3456,
			"byteOffset":51404,
			"target":34962
		},
		{
			"buffer":0,
			"byteLength":2304,
			"byteOffset":54860,
			"target":34962
		},
		{
			"buffer":0,
			"byteLength":1728,
			"byteOffset":57164,
			"target":34963
		},
		{
			"buffer":0,
			"byteLength":1296,
			"byteOffset":58892,
			"target":34962
		},
		{
			"buffer":0,
			"byteLength":1296,
			"byteOffset":60188,
			"target":34962
		},
		{
			"buffer":0,
			"byteLength":864,
			"byteOffset":61484,
			"target":34962
		},
		{
			"buffer":0,
			"byteLength":336,
			"byteOffset":62348,
			"target":34963
		},
		{
			"buffer":0,
			"byteLength":8604,
			"byteOffset":62684,
			"target":34962
		},
		{
			"buffer":0,
			"byteLength":8604,
			"byteOffset":71288,
			"target":34962
		},
		{
			"buffer":0,
			"byteLength":5736,
			"byteOffset":79892,
			"target":34962
		},
		{
			"buffer":0,
			"byteLength":4896,
			"byteOffset":85628,
			"target":34963
		},
		{
			"buffer":0,
			"byteLength":216,
			"byteOffset":90524,
			"target":34962
		},
		{
			"buffer":0,
			"byteLength":216,
			"byteOffset":90740,
			"target":34962
		},
		{
			"buffer":0,
			"byteLength":144,
			"byteOffset":90956,
			"target":34962
		},
		{
			"buffer":0,
			"byteLength":72,
			"byteOffset":91100,
			"target":34963
		},
		{
			"buffer":0,
			"byteLength":3780,
			"byteOffset":91172,
			"target":34962
		},
		{
			"buffer":0,
			"byteLength":3780,
			"byteOffset":94952,
			"target":34962
		},
		{
			"buffer":0,
			"byteLength":2520,
			"byteOffset":98732,
			"target":34962
		},
		{
			"buffer":0,
			"byteLength":1818,
			"byteOffset":101252,
			"target":34963
		},
		{
			"buffer":0,
			"byteLength":288,
			"byteOffset":103072,
			"target":34962
		},
		{
			"buffer":0,
			"byteLength":288,
			"byteOffset":103360,
			"target":34962
		},
		{
			"buffer":0,
			"byteLength":192,
			"byteOffset":103648,
			"target":34962
		},
		{
			"buffer":0,
			"byteLength":72,
			"byteOffset":103840,
			"target":34963
		},
		{
			"buffer":0,
			"byteLength":6240,
			"byteOffset":103912,
			"target":34962
		},
		{
			"buffer":0,
			"byteLength":6240,
			"byteOffset":110152,
			"target":34962
		},
		{
			"buffer":0,
			"byteLength":4160,
			"byteOffset":116392,
			"target":34962
		},
		{
			"buffer":0,
			"byteLength":3528,
			"byteOffset":120552,
			"target":34963
		},
		{
			"buffer":0,
			"byteLength":792,
			"byteOffset":124080,
			"target":34962
		},
		{
			"buffer":0,
			"byteLength":792,
			"byteOffset":124872,
			"target":34962
		},
		{
			"buffer":0,
			"byteLength":528,
			"byteOffset":125664,
			"target":34962
		},
		{
			"buffer":0,
			"byteLength":288,
			"byteOffset":126192,
			"target":34963
		},
		{
			"buffer":0,
			"byteLength":3168,
			"byteOffset":126480,
			"target":34962
		},
		{
			"buffer":0,
			"byteLength":3168,
			"byteOffset":129648,
			"target":34962
		},
		{
			"buffer":0,
			"byteLength":2112,
			"byteOffset":132816,
			"target":34962
		},
		{
			"buffer":0,
			"byteLength":1536,
			"byteOffset":134928,
			"target":34963
		},
		{
			"buffer":0,
			"byteLength":2568,
			"byteOffset":136464,
			"target":34962
		},
		{
			"buffer":0,
			"byteLength":2568,
			"byteOffset":139032,
			"target":34962
		},
		{
			"buffer":0,
			"byteLength":1712,
			"byteOffset":141600,
			"target":34962
		},
		{
			"buffer":0,
			"byteLength":984,
			"byteOffset":143312,
			"target":34963
		},
		{
			"buffer":0,
			"byteLength":864,
			"byteOffset":144296,
			"target":34962
		},
		{
			"buffer":0,
			"byteLength":864,
			"byteOffset":145160,
			"target":34962
		},
		{
			"buffer":0,
			"byteLength":576,
			"byteOffset":146024,
			"target":34962
		},
		{
			"buffer":0,
			"byteLength":216,
			"byteOffset":146600,
			"target":34963
		},
		{
			"buffer":0,
			"byteLength":48,
			"byteOffset":146816,
			"target":34962
		},
		{
			"buffer":0,
			"byteLength":48,
			"byteOffset":146864,
			"target":34962
		},
		{
			"buffer":0,
			"byteLength":32,
			"byteOffset":146912,
			"target":34962
		},
		{
			"buffer":0,
			"byteLength":12,
			"byteOffset":146944,
			"target":34963
		},
		{
			"buffer":0,
			"byteLength":48,
			"byteOffset":146956,
			"target":34962
		},
		{
			"buffer":0,
			"byteLength":48,
			"byteOffset":147004,
			"target":34962
		},
		{
			"buffer":0,
			"byteLength":32,
			"byteOffset":147052,
			"target":34962
		}
	],
	"samplers":[
		{
			"magFilter":9729,
			"minFilter":9987
		}
	],
	"buffers":[
		{
			"byteLength":147084,
			"uri":"Ship.bin"
		}
	]
}
